<mxfile host="app.diagrams.net" agent="Mozilla/5.0 (Windows NT 10.0; Win64; x64) AppleWebKit/537.36 (KHTML, like Gecko) Chrome/133.0.0.0 Safari/537.36" version="26.1.0">
  <diagram name="idea" id="UMXe_evsPPeIfmUSWy-l">
    <mxGraphModel dx="1621" dy="458" grid="1" gridSize="10" guides="1" tooltips="1" connect="1" arrows="1" fold="1" page="1" pageScale="1" pageWidth="827" pageHeight="1169" math="0" shadow="0">
      <root>
        <mxCell id="0" />
        <mxCell id="1" parent="0" />
        <mxCell id="IenACArSF1XKTmNU96PT-1" value="" style="rounded=1;whiteSpace=wrap;html=1;fontSize=14;" vertex="1" parent="1">
          <mxGeometry x="484" y="130" width="160" height="320" as="geometry" />
        </mxCell>
        <mxCell id="IenACArSF1XKTmNU96PT-2" style="edgeStyle=none;curved=1;rounded=0;orthogonalLoop=1;jettySize=auto;html=1;exitX=1;exitY=0.5;exitDx=0;exitDy=0;entryX=0;entryY=0.5;entryDx=0;entryDy=0;fontSize=14;startSize=8;endSize=8;" edge="1" parent="1" source="IenACArSF1XKTmNU96PT-3" target="IenACArSF1XKTmNU96PT-5">
          <mxGeometry relative="1" as="geometry" />
        </mxCell>
        <mxCell id="IenACArSF1XKTmNU96PT-3" value="recieve rxWaveform from srsRAN" style="rounded=0;whiteSpace=wrap;html=1;fontSize=14;" vertex="1" parent="1">
          <mxGeometry x="-30" y="280" width="120" height="60" as="geometry" />
        </mxCell>
        <mxCell id="IenACArSF1XKTmNU96PT-4" style="edgeStyle=none;curved=1;rounded=0;orthogonalLoop=1;jettySize=auto;html=1;exitX=1;exitY=0.5;exitDx=0;exitDy=0;entryX=0;entryY=0.5;entryDx=0;entryDy=0;fontSize=14;startSize=8;endSize=8;" edge="1" parent="1" source="IenACArSF1XKTmNU96PT-5" target="IenACArSF1XKTmNU96PT-7">
          <mxGeometry relative="1" as="geometry" />
        </mxCell>
        <mxCell id="IenACArSF1XKTmNU96PT-5" value="shift frequency&lt;div&gt;(rxWaveform&lt;/div&gt;&lt;div&gt;FreqCorrected&amp;nbsp;&lt;/div&gt;" style="rounded=0;whiteSpace=wrap;html=1;fontSize=14;" vertex="1" parent="1">
          <mxGeometry x="134" y="275" width="160" height="70" as="geometry" />
        </mxCell>
        <mxCell id="IenACArSF1XKTmNU96PT-6" style="edgeStyle=none;curved=1;rounded=0;orthogonalLoop=1;jettySize=auto;html=1;exitX=1;exitY=0.5;exitDx=0;exitDy=0;fontSize=14;startSize=8;endSize=8;" edge="1" parent="1" source="IenACArSF1XKTmNU96PT-7" target="IenACArSF1XKTmNU96PT-10">
          <mxGeometry relative="1" as="geometry" />
        </mxCell>
        <mxCell id="IenACArSF1XKTmNU96PT-7" value="downsample&lt;div&gt;(rxWaveformDS&amp;nbsp;)&lt;/div&gt;" style="rounded=0;whiteSpace=wrap;html=1;fontSize=14;" vertex="1" parent="1">
          <mxGeometry x="324" y="280" width="120" height="60" as="geometry" />
        </mxCell>
        <mxCell id="IenACArSF1XKTmNU96PT-8" value="compare rxWaveformDS with seq NID2_0" style="rounded=0;whiteSpace=wrap;html=1;fontSize=14;" vertex="1" parent="1">
          <mxGeometry x="504" y="200" width="120" height="60" as="geometry" />
        </mxCell>
        <mxCell id="IenACArSF1XKTmNU96PT-9" style="edgeStyle=none;curved=1;rounded=0;orthogonalLoop=1;jettySize=auto;html=1;exitX=1;exitY=0.5;exitDx=0;exitDy=0;entryX=0;entryY=0.5;entryDx=0;entryDy=0;fontSize=14;startSize=8;endSize=8;" edge="1" parent="1" source="IenACArSF1XKTmNU96PT-10" target="IenACArSF1XKTmNU96PT-12">
          <mxGeometry relative="1" as="geometry" />
        </mxCell>
        <mxCell id="IenACArSF1XKTmNU96PT-10" value="compare rxWaveformDS with seq NID2_1" style="rounded=0;whiteSpace=wrap;html=1;fontSize=14;" vertex="1" parent="1">
          <mxGeometry x="504" y="280" width="120" height="60" as="geometry" />
        </mxCell>
        <mxCell id="IenACArSF1XKTmNU96PT-11" value="compare rxWaveformDS with seq NID2_2" style="rounded=0;whiteSpace=wrap;html=1;fontSize=14;" vertex="1" parent="1">
          <mxGeometry x="504" y="370" width="120" height="60" as="geometry" />
        </mxCell>
        <mxCell id="IenACArSF1XKTmNU96PT-12" value="find&amp;nbsp;&lt;div&gt;max correlation&lt;/div&gt;" style="rounded=0;whiteSpace=wrap;html=1;fontSize=14;" vertex="1" parent="1">
          <mxGeometry x="674" y="280" width="116" height="60" as="geometry" />
        </mxCell>
        <mxCell id="IenACArSF1XKTmNU96PT-13" value="load PSS seq" style="rounded=0;whiteSpace=wrap;html=1;fontSize=14;" vertex="1" parent="1">
          <mxGeometry x="504" y="150" width="120" height="30" as="geometry" />
        </mxCell>
        <mxCell id="IenACArSF1XKTmNU96PT-14" style="edgeStyle=none;curved=1;rounded=0;orthogonalLoop=1;jettySize=auto;html=1;exitX=1;exitY=0.5;exitDx=0;exitDy=0;fontSize=12;startSize=8;endSize=8;" edge="1" parent="1" source="IenACArSF1XKTmNU96PT-15" target="IenACArSF1XKTmNU96PT-19">
          <mxGeometry relative="1" as="geometry" />
        </mxCell>
        <mxCell id="IenACArSF1XKTmNU96PT-15" value="rxWaveform" style="rounded=0;whiteSpace=wrap;html=1;fontSize=17;" vertex="1" parent="1">
          <mxGeometry x="50" y="755" width="110" height="60" as="geometry" />
        </mxCell>
        <mxCell id="IenACArSF1XKTmNU96PT-16" style="edgeStyle=none;curved=1;rounded=0;orthogonalLoop=1;jettySize=auto;html=1;exitX=1;exitY=0.5;exitDx=0;exitDy=0;fontSize=12;startSize=8;endSize=8;" edge="1" parent="1" source="IenACArSF1XKTmNU96PT-17" target="IenACArSF1XKTmNU96PT-23">
          <mxGeometry relative="1" as="geometry" />
        </mxCell>
        <mxCell id="IenACArSF1XKTmNU96PT-17" value="shift&amp;nbsp;&lt;div&gt;frequency 1&lt;/div&gt;" style="rounded=0;whiteSpace=wrap;html=1;fontSize=17;" vertex="1" parent="1">
          <mxGeometry x="200" y="605" width="120" height="50" as="geometry" />
        </mxCell>
        <mxCell id="IenACArSF1XKTmNU96PT-18" style="edgeStyle=none;curved=1;rounded=0;orthogonalLoop=1;jettySize=auto;html=1;exitX=1;exitY=0.5;exitDx=0;exitDy=0;entryX=0;entryY=0.5;entryDx=0;entryDy=0;fontSize=12;startSize=8;endSize=8;" edge="1" parent="1" source="IenACArSF1XKTmNU96PT-19" target="IenACArSF1XKTmNU96PT-25">
          <mxGeometry relative="1" as="geometry" />
        </mxCell>
        <mxCell id="IenACArSF1XKTmNU96PT-19" value="shift&amp;nbsp;&lt;div&gt;frequency 2&lt;/div&gt;" style="rounded=0;whiteSpace=wrap;html=1;fontSize=17;" vertex="1" parent="1">
          <mxGeometry x="200" y="760" width="120" height="50" as="geometry" />
        </mxCell>
        <mxCell id="IenACArSF1XKTmNU96PT-20" style="edgeStyle=none;curved=1;rounded=0;orthogonalLoop=1;jettySize=auto;html=1;exitX=1;exitY=0.5;exitDx=0;exitDy=0;entryX=0;entryY=0.5;entryDx=0;entryDy=0;fontSize=12;startSize=8;endSize=8;" edge="1" parent="1" source="IenACArSF1XKTmNU96PT-21" target="IenACArSF1XKTmNU96PT-27">
          <mxGeometry relative="1" as="geometry" />
        </mxCell>
        <mxCell id="IenACArSF1XKTmNU96PT-21" value="shift&amp;nbsp;&lt;div&gt;frequency n&lt;/div&gt;" style="rounded=0;whiteSpace=wrap;html=1;fontSize=17;" vertex="1" parent="1">
          <mxGeometry x="200" y="945" width="120" height="50" as="geometry" />
        </mxCell>
        <mxCell id="IenACArSF1XKTmNU96PT-22" style="edgeStyle=none;curved=1;rounded=0;orthogonalLoop=1;jettySize=auto;html=1;exitX=1;exitY=0.5;exitDx=0;exitDy=0;entryX=0;entryY=0.5;entryDx=0;entryDy=0;fontSize=12;startSize=8;endSize=8;" edge="1" parent="1" source="IenACArSF1XKTmNU96PT-23" target="IenACArSF1XKTmNU96PT-29">
          <mxGeometry relative="1" as="geometry">
            <mxPoint x="470" y="630" as="sourcePoint" />
          </mxGeometry>
        </mxCell>
        <mxCell id="IenACArSF1XKTmNU96PT-23" value="downsample" style="rounded=0;whiteSpace=wrap;html=1;fontSize=17;" vertex="1" parent="1">
          <mxGeometry x="360" y="605" width="104" height="50" as="geometry" />
        </mxCell>
        <mxCell id="IenACArSF1XKTmNU96PT-24" style="edgeStyle=none;curved=1;rounded=0;orthogonalLoop=1;jettySize=auto;html=1;exitX=1;exitY=0.5;exitDx=0;exitDy=0;entryX=0;entryY=0.5;entryDx=0;entryDy=0;fontSize=12;startSize=8;endSize=8;" edge="1" parent="1" source="IenACArSF1XKTmNU96PT-25" target="IenACArSF1XKTmNU96PT-32">
          <mxGeometry relative="1" as="geometry">
            <mxPoint x="470" y="785" as="sourcePoint" />
          </mxGeometry>
        </mxCell>
        <mxCell id="IenACArSF1XKTmNU96PT-25" value="downsample" style="rounded=0;whiteSpace=wrap;html=1;fontSize=17;" vertex="1" parent="1">
          <mxGeometry x="360" y="760" width="104" height="50" as="geometry" />
        </mxCell>
        <mxCell id="IenACArSF1XKTmNU96PT-26" style="edgeStyle=none;curved=1;rounded=0;orthogonalLoop=1;jettySize=auto;html=1;exitX=1;exitY=0.5;exitDx=0;exitDy=0;entryX=0;entryY=0.5;entryDx=0;entryDy=0;fontSize=12;startSize=8;endSize=8;" edge="1" parent="1" source="IenACArSF1XKTmNU96PT-27" target="IenACArSF1XKTmNU96PT-35">
          <mxGeometry relative="1" as="geometry" />
        </mxCell>
        <mxCell id="IenACArSF1XKTmNU96PT-27" value="downsample" style="rounded=0;whiteSpace=wrap;html=1;fontSize=17;" vertex="1" parent="1">
          <mxGeometry x="360" y="945" width="104" height="50" as="geometry" />
        </mxCell>
        <mxCell id="IenACArSF1XKTmNU96PT-28" value="compare w/ NID2_0" style="rounded=0;whiteSpace=wrap;html=1;fontSize=17;" vertex="1" parent="1">
          <mxGeometry x="510" y="560" width="100" height="40" as="geometry" />
        </mxCell>
        <mxCell id="IenACArSF1XKTmNU96PT-29" value="compare w/ NID2_1" style="rounded=0;whiteSpace=wrap;html=1;fontSize=17;" vertex="1" parent="1">
          <mxGeometry x="510" y="610" width="100" height="40" as="geometry" />
        </mxCell>
        <mxCell id="IenACArSF1XKTmNU96PT-30" value="compare w/ NID2_2" style="rounded=0;whiteSpace=wrap;html=1;fontSize=17;" vertex="1" parent="1">
          <mxGeometry x="510" y="660" width="100" height="40" as="geometry" />
        </mxCell>
        <mxCell id="IenACArSF1XKTmNU96PT-31" value="compare w/ NID2_0" style="rounded=0;whiteSpace=wrap;html=1;fontSize=17;" vertex="1" parent="1">
          <mxGeometry x="510" y="715" width="100" height="40" as="geometry" />
        </mxCell>
        <mxCell id="IenACArSF1XKTmNU96PT-32" value="compare w/ NID2_1" style="rounded=0;whiteSpace=wrap;html=1;fontSize=17;" vertex="1" parent="1">
          <mxGeometry x="510" y="765" width="100" height="40" as="geometry" />
        </mxCell>
        <mxCell id="IenACArSF1XKTmNU96PT-33" value="compare w/ NID2_2" style="rounded=0;whiteSpace=wrap;html=1;fontSize=17;" vertex="1" parent="1">
          <mxGeometry x="510" y="815" width="100" height="40" as="geometry" />
        </mxCell>
        <mxCell id="IenACArSF1XKTmNU96PT-34" value="compare w/ NID2_0" style="rounded=0;whiteSpace=wrap;html=1;fontSize=17;" vertex="1" parent="1">
          <mxGeometry x="510" y="900" width="100" height="40" as="geometry" />
        </mxCell>
        <mxCell id="IenACArSF1XKTmNU96PT-35" value="compare w/ NID2_1" style="rounded=0;whiteSpace=wrap;html=1;fontSize=17;" vertex="1" parent="1">
          <mxGeometry x="510" y="950" width="100" height="40" as="geometry" />
        </mxCell>
        <mxCell id="IenACArSF1XKTmNU96PT-36" value="compare w/ NID2_2" style="rounded=0;whiteSpace=wrap;html=1;fontSize=17;" vertex="1" parent="1">
          <mxGeometry x="510" y="1000" width="100" height="40" as="geometry" />
        </mxCell>
        <mxCell id="IenACArSF1XKTmNU96PT-37" value="find max correlation" style="rounded=0;whiteSpace=wrap;html=1;fontSize=17;" vertex="1" parent="1">
          <mxGeometry x="680" y="772.5" width="120" height="60" as="geometry" />
        </mxCell>
        <mxCell id="IenACArSF1XKTmNU96PT-38" value=".&lt;div&gt;.&lt;/div&gt;&lt;div&gt;.&lt;/div&gt;" style="text;html=1;align=center;verticalAlign=middle;whiteSpace=wrap;rounded=0;fontSize=17;fontStyle=1" vertex="1" parent="1">
          <mxGeometry x="310" y="855" width="60" height="30" as="geometry" />
        </mxCell>
        <mxCell id="IenACArSF1XKTmNU96PT-39" value="" style="edgeStyle=elbowEdgeStyle;elbow=horizontal;endArrow=classic;html=1;curved=0;rounded=0;endSize=8;startSize=8;fontSize=14;exitX=1;exitY=0.25;exitDx=0;exitDy=0;entryX=0;entryY=0.5;entryDx=0;entryDy=0;" edge="1" parent="1" source="IenACArSF1XKTmNU96PT-7" target="IenACArSF1XKTmNU96PT-8">
          <mxGeometry width="50" height="50" relative="1" as="geometry">
            <mxPoint x="404" y="230" as="sourcePoint" />
            <mxPoint x="454" y="180" as="targetPoint" />
            <Array as="points">
              <mxPoint x="464" y="260" />
            </Array>
          </mxGeometry>
        </mxCell>
        <mxCell id="IenACArSF1XKTmNU96PT-40" value="" style="edgeStyle=elbowEdgeStyle;elbow=horizontal;endArrow=classic;html=1;curved=0;rounded=0;endSize=8;startSize=8;fontSize=14;exitX=1;exitY=0.75;exitDx=0;exitDy=0;entryX=0;entryY=0.5;entryDx=0;entryDy=0;" edge="1" parent="1" source="IenACArSF1XKTmNU96PT-7" target="IenACArSF1XKTmNU96PT-11">
          <mxGeometry width="50" height="50" relative="1" as="geometry">
            <mxPoint x="378" y="460" as="sourcePoint" />
            <mxPoint x="438" y="395" as="targetPoint" />
            <Array as="points">
              <mxPoint x="464" y="360" />
            </Array>
          </mxGeometry>
        </mxCell>
        <mxCell id="IenACArSF1XKTmNU96PT-41" value="" style="edgeStyle=elbowEdgeStyle;elbow=horizontal;endArrow=classic;html=1;curved=0;rounded=0;endSize=8;startSize=8;fontSize=14;exitX=1;exitY=0.5;exitDx=0;exitDy=0;entryX=0;entryY=0.25;entryDx=0;entryDy=0;" edge="1" parent="1" source="IenACArSF1XKTmNU96PT-8" target="IenACArSF1XKTmNU96PT-12">
          <mxGeometry width="50" height="50" relative="1" as="geometry">
            <mxPoint x="684" y="245" as="sourcePoint" />
            <mxPoint x="744" y="180" as="targetPoint" />
            <Array as="points">
              <mxPoint x="654" y="260" />
            </Array>
          </mxGeometry>
        </mxCell>
        <mxCell id="IenACArSF1XKTmNU96PT-42" value="" style="edgeStyle=elbowEdgeStyle;elbow=horizontal;endArrow=classic;html=1;curved=0;rounded=0;endSize=8;startSize=8;fontSize=14;entryX=0;entryY=0.75;entryDx=0;entryDy=0;" edge="1" parent="1" source="IenACArSF1XKTmNU96PT-11" target="IenACArSF1XKTmNU96PT-12">
          <mxGeometry width="50" height="50" relative="1" as="geometry">
            <mxPoint x="674" y="362.5" as="sourcePoint" />
            <mxPoint x="734" y="437.5" as="targetPoint" />
            <Array as="points">
              <mxPoint x="654" y="360" />
            </Array>
          </mxGeometry>
        </mxCell>
        <mxCell id="IenACArSF1XKTmNU96PT-43" value="" style="edgeStyle=elbowEdgeStyle;elbow=horizontal;endArrow=classic;html=1;curved=0;rounded=0;endSize=8;startSize=8;fontSize=12;exitX=1;exitY=0.25;exitDx=0;exitDy=0;entryX=0;entryY=0.5;entryDx=0;entryDy=0;" edge="1" parent="1" source="IenACArSF1XKTmNU96PT-15" target="IenACArSF1XKTmNU96PT-17">
          <mxGeometry width="50" height="50" relative="1" as="geometry">
            <mxPoint x="176" y="767.5" as="sourcePoint" />
            <mxPoint x="236" y="702.5" as="targetPoint" />
            <Array as="points" />
          </mxGeometry>
        </mxCell>
        <mxCell id="IenACArSF1XKTmNU96PT-44" value="" style="edgeStyle=elbowEdgeStyle;elbow=horizontal;endArrow=classic;html=1;curved=0;rounded=0;endSize=8;startSize=8;fontSize=12;exitX=1;exitY=0.25;exitDx=0;exitDy=0;entryX=0;entryY=0.5;entryDx=0;entryDy=0;" edge="1" parent="1" source="IenACArSF1XKTmNU96PT-23" target="IenACArSF1XKTmNU96PT-28">
          <mxGeometry width="50" height="50" relative="1" as="geometry">
            <mxPoint x="470" y="617.5" as="sourcePoint" />
            <mxPoint x="456" y="560" as="targetPoint" />
            <Array as="points" />
          </mxGeometry>
        </mxCell>
        <mxCell id="IenACArSF1XKTmNU96PT-45" value="" style="edgeStyle=elbowEdgeStyle;elbow=horizontal;endArrow=classic;html=1;curved=0;rounded=0;endSize=8;startSize=8;fontSize=12;exitX=1;exitY=0.75;exitDx=0;exitDy=0;entryX=0;entryY=0.5;entryDx=0;entryDy=0;" edge="1" parent="1" source="IenACArSF1XKTmNU96PT-15" target="IenACArSF1XKTmNU96PT-21">
          <mxGeometry width="50" height="50" relative="1" as="geometry">
            <mxPoint x="150" y="950" as="sourcePoint" />
            <mxPoint x="190" y="810" as="targetPoint" />
            <Array as="points" />
          </mxGeometry>
        </mxCell>
        <mxCell id="IenACArSF1XKTmNU96PT-46" value="" style="edgeStyle=elbowEdgeStyle;elbow=horizontal;endArrow=classic;html=1;curved=0;rounded=0;endSize=8;startSize=8;fontSize=12;exitX=1;exitY=0.75;exitDx=0;exitDy=0;entryX=0;entryY=0.5;entryDx=0;entryDy=0;" edge="1" parent="1" source="IenACArSF1XKTmNU96PT-23" target="IenACArSF1XKTmNU96PT-30">
          <mxGeometry width="50" height="50" relative="1" as="geometry">
            <mxPoint x="440" y="675" as="sourcePoint" />
            <mxPoint x="480" y="845" as="targetPoint" />
            <Array as="points" />
          </mxGeometry>
        </mxCell>
        <mxCell id="IenACArSF1XKTmNU96PT-47" value="" style="edgeStyle=elbowEdgeStyle;elbow=horizontal;endArrow=classic;html=1;curved=0;rounded=0;endSize=8;startSize=8;fontSize=12;exitX=1;exitY=0.25;exitDx=0;exitDy=0;entryX=0;entryY=0.5;entryDx=0;entryDy=0;" edge="1" parent="1" target="IenACArSF1XKTmNU96PT-31">
          <mxGeometry width="50" height="50" relative="1" as="geometry">
            <mxPoint x="464" y="773" as="sourcePoint" />
            <mxPoint x="496" y="735" as="targetPoint" />
            <Array as="points" />
          </mxGeometry>
        </mxCell>
        <mxCell id="IenACArSF1XKTmNU96PT-48" value="" style="edgeStyle=elbowEdgeStyle;elbow=horizontal;endArrow=classic;html=1;curved=0;rounded=0;endSize=8;startSize=8;fontSize=12;exitX=1;exitY=0.75;exitDx=0;exitDy=0;entryX=0;entryY=0.5;entryDx=0;entryDy=0;" edge="1" parent="1" target="IenACArSF1XKTmNU96PT-33">
          <mxGeometry width="50" height="50" relative="1" as="geometry">
            <mxPoint x="464" y="798" as="sourcePoint" />
            <mxPoint x="496" y="835" as="targetPoint" />
            <Array as="points" />
          </mxGeometry>
        </mxCell>
        <mxCell id="IenACArSF1XKTmNU96PT-49" value="" style="edgeStyle=elbowEdgeStyle;elbow=horizontal;endArrow=classic;html=1;curved=0;rounded=0;endSize=8;startSize=8;fontSize=12;exitX=1;exitY=0.25;exitDx=0;exitDy=0;entryX=0;entryY=0.5;entryDx=0;entryDy=0;" edge="1" parent="1" source="IenACArSF1XKTmNU96PT-27" target="IenACArSF1XKTmNU96PT-34">
          <mxGeometry width="50" height="50" relative="1" as="geometry">
            <mxPoint x="464" y="953" as="sourcePoint" />
            <mxPoint x="496" y="915" as="targetPoint" />
            <Array as="points" />
          </mxGeometry>
        </mxCell>
        <mxCell id="IenACArSF1XKTmNU96PT-50" value="" style="edgeStyle=elbowEdgeStyle;elbow=horizontal;endArrow=classic;html=1;curved=0;rounded=0;endSize=8;startSize=8;fontSize=12;exitX=1;exitY=0.75;exitDx=0;exitDy=0;entryX=0;entryY=0.5;entryDx=0;entryDy=0;" edge="1" parent="1" source="IenACArSF1XKTmNU96PT-27" target="IenACArSF1XKTmNU96PT-36">
          <mxGeometry width="50" height="50" relative="1" as="geometry">
            <mxPoint x="464" y="978" as="sourcePoint" />
            <mxPoint x="496" y="1015" as="targetPoint" />
            <Array as="points" />
          </mxGeometry>
        </mxCell>
        <mxCell id="IenACArSF1XKTmNU96PT-51" value="" style="shape=curlyBracket;whiteSpace=wrap;html=1;rounded=1;flipH=1;labelPosition=right;verticalLabelPosition=middle;align=left;verticalAlign=middle;" vertex="1" parent="1">
          <mxGeometry x="630" y="570" width="30" height="465" as="geometry" />
        </mxCell>
        <mxCell id="IenACArSF1XKTmNU96PT-52" value="" style="shape=flexArrow;endArrow=classic;html=1;rounded=0;fontSize=12;startSize=8;endSize=8;curved=1;" edge="1" parent="1">
          <mxGeometry width="50" height="50" relative="1" as="geometry">
            <mxPoint x="411.40999999999997" y="480" as="sourcePoint" />
            <mxPoint x="411.40999999999997" y="530" as="targetPoint" />
          </mxGeometry>
        </mxCell>
      </root>
    </mxGraphModel>
  </diagram>
</mxfile>
